# File created by Blade
# Date/Time:  Wed Jan 21 19:19:18 2015
# Frame Rate: 120.000 fps
#------------------------------------------------------
:FULLY-SPECIFIED
:DEGREES
1059
root -2.145192 24.804501 -6.355364 47.670233 -20.601552 18.933236
RightUpLeg -123.406351 -41.409890 12.852895
RightLeg 63.748331 -0.000000 -0.000000
RightFoot -18.609668 12.370895 35.401544
RightToeBase 24.539979 -0.000000 -0.000000
LeftUpLeg -59.640632 13.798833 -0.936619
LeftLeg 49.866290 -0.000000 -0.000000
LeftFoot -34.913067 9.188138 -22.780346
LeftToeBase 1.075958 -0.000000 -0.000000
Spine -26.968646 17.434070 15.244933
RightShoulder -7.248845 16.073287 -29.039484
RightArm -2.561896 -26.416032 67.706217
RightForeArm 15.142596 -0.000000 8.288166
RightHand 19.804929 -0.000000 -2.069257
RightHandThumb1 -24.326973 -0.000000 -32.862282
LeftShoulder -11.897675 -1.532389 42.859856
LeftArm 17.484494 -37.100491 -35.121717
LeftForeArm 21.659344 -0.000000 33.979606
LeftHand -22.175836 -0.000000 19.685771
LeftHandThumb1 -26.253704 0.000000 33.147579
Head -17.449762 -0.205747 -2.188593
1060
root -2.042506 24.846662 -6.372254 47.515141 -20.116725 18.546375
RightUpLeg -122.362374 -41.619255 12.611310
RightLeg 63.081584 -0.000000 -0.000000
RightFoot -18.376970 12.359422 35.355683
RightToeBase 24.495354 -0.000000 -0.000000
LeftUpLeg -59.442902 13.651633 -0.418408
LeftLeg 49.983216 -0.000000 -0.000000
LeftFoot -35.281676 9.091005 -22.856886
LeftToeBase 1.824474 -0.000000 -0.000000
Spine -27.260727 17.101329 14.826106
RightShoulder -7.557207 15.989505 -28.970209
RightArm -2.882807 -25.779281 68.130423
RightForeArm 15.262032 -0.000000 8.466337
RightHand 20.028532 -0.000000 -2.713447
RightHandThumb1 -24.326973 -0.000000 -32.862282
LeftShoulder -11.895847 -1.273374 42.603875
LeftArm 16.994471 -36.736001 -35.261224
LeftForeArm 21.601528 -0.000000 33.619153
LeftHand -22.374664 -0.000000 19.680148
LeftHandThumb1 -26.253704 0.000000 33.147579
Head -17.157071 -0.361791 -1.853919
1061
root -1.920935 24.895867 -6.390384 47.404245 -19.734673 18.551582
RightUpLeg -121.687583 -42.012376 12.263783
RightLeg 62.409275 -0.000000 -0.000000
RightFoot -17.971764 12.381287 35.330348
RightToeBase 24.488428 -0.000000 -0.000000
LeftUpLeg -59.400427 13.193601 -0.201013
LeftLeg 50.001758 -0.000000 -0.000000
LeftFoot -35.361251 9.031586 -22.790441
LeftToeBase 1.125328 -0.000000 -0.000000
Spine -27.789642 16.578313 14.025779
RightShoulder -7.750706 15.593311 -28.849475
RightArm -2.943173 -24.838770 68.409071
RightForeArm 15.361454 0.000000 8.755238
RightHand 20.134426 -0.000000 -3.225939
RightHandThumb1 -24.326973 -0.000000 -32.862282
LeftShoulder -11.859930 -1.040994 42.457741
LeftArm 16.410048 -36.335127 -35.449112
LeftForeArm 21.602130 0.000000 33.304849
LeftHand -22.485135 -0.000000 19.558964
LeftHandThumb1 -26.253704 0.000000 33.147579
Head -16.785729 -0.491467 -1.460719
1062
root -1.805794 24.953723 -6.413009 47.305600 -19.372379 18.339150
RightUpLeg -120.745031 -42.219866 11.872999
RightLeg 61.636328 -0.000000 -0.000000
RightFoot -17.695088 12.378633 35.396200
RightToeBase 24.639289 -0.000000 -0.000000
LeftUpLeg -59.343269 12.918033 0.234954
LeftLeg 49.972195 -0.000000 -0.000000
LeftFoot -35.258262 8.728833 -22.831865
LeftToeBase 0.879737 -0.000000 -0.000000
Spine -28.124583 16.198465 13.398540
RightShoulder -8.016042 15.490653 -28.751298
RightArm -3.276773 -23.963587 68.767244
RightForeArm 15.425979 -0.000000 9.105779
RightHand 20.303690 0.000000 -3.775314
RightHandThumb1 -24.326973 -0.000000 -32.862282
LeftShoulder -11.932628 -0.881653 42.263572
LeftArm 15.905083 -36.032328 -35.745186
LeftForeArm 21.711373 -0.000000 33.193741
LeftHand -22.624408 0.000000 19.245729
LeftHandThumb1 -26.253704 0.000000 33.147579
Head -16.602769 -0.592867 -1.163822
1063
root -1.683290 25.020251 -6.428411 47.184881 -18.978668 18.110931
RightUpLeg -119.768405 -42.448413 11.583011
RightLeg 60.782546 -0.000000 -0.000000
RightFoot -17.478220 12.390202 35.507620
RightToeBase 24.619228 -0.000000 -0.000000
LeftUpLeg -59.241975 12.644284 0.688912
LeftLeg 49.881941 -0.000000 -0.000000
LeftFoot -35.199228 8.484119 -22.820918
LeftToeBase 1.942457 -0.000000 -0.000000
Spine -28.451492 15.857261 12.824953
RightShoulder -8.304459 15.321680 -28.684559
RightArm -3.568438 -23.014688 69.077877
RightForeArm 15.491128 -0.000000 9.462163
RightHand 20.569506 0.000000 -4.455178
RightHandThumb1 -24.326973 -0.000000 -32.862282
LeftShoulder -11.891818 -0.626806 42.046295
LeftArm 15.389179 -35.956244 -36.132807
LeftForeArm 21.898089 -0.000000 33.309181
LeftHand -22.959792 -0.000000 18.450749
LeftHandThumb1 -26.253704 0.000000 33.147579
Head -16.311522 -0.757134 -0.887522
1064
root -1.548614 25.094474 -6.441869 47.052829 -18.677962 18.005216
RightUpLeg -118.841225 -42.703028 11.190733
RightLeg 59.895054 -0.000000 -0.000000
RightFoot -17.317250 12.373229 35.489709
RightToeBase 24.569167 -0.000000 -0.000000
LeftUpLeg -59.134752 12.347236 0.925380
LeftLeg 49.740074 -0.000000 -0.000000
LeftFoot -35.096900 8.179468 -22.727931
LeftToeBase 2.361492 -0.000000 -0.000000
Spine -28.780500 15.521512 12.117284
RightShoulder -8.570896 15.084288 -28.669168
RightArm -3.875954 -22.051061 69.416419
RightForeArm 15.526127 0.000000 9.954135
RightHand 20.490531 -0.000000 -4.867359
RightHandThumb1 -24.326973 -0.000000 -32.862282
LeftShoulder -11.839079 -0.427745 41.830192
LeftArm 14.812221 -35.724291 -36.480460
LeftForeArm 21.825519 -0.000000 33.410906
LeftHand -22.963625 -0.000000 18.173931
LeftHandThumb1 -26.253704 0.000000 33.147579
Head -16.057645 -0.976715 -0.669236
1065
root -1.417497 25.179172 -6.449161 46.907445 -18.304336 17.687904
RightUpLeg -117.659683 -42.868509 10.907344
RightLeg 58.867706 -0.000000 -0.000000
RightFoot -17.259191 12.368277 35.769313
RightToeBase 24.888172 -0.000000 -0.000000
LeftUpLeg -58.964584 12.239861 1.277074
LeftLeg 49.603782 -0.000000 -0.000000
LeftFoot -34.997909 7.792887 -22.643960
LeftToeBase 2.020897 -0.000000 -0.000000
Spine -28.949125 15.245949 11.706525
RightShoulder -8.902233 14.778475 -28.646616
RightArm -4.000121 -20.971205 69.664342
RightForeArm 15.474010 -0.000000 10.477139
RightHand 20.405670 -0.000000 -5.289037
RightHandThumb1 -24.326973 -0.000000 -32.862282
LeftShoulder -11.927228 -0.017408 41.516834
LeftArm 14.633074 -35.714058 -37.107017
LeftForeArm 21.897841 -0.000000 33.393311
LeftHand -22.915808 -0.000000 18.003432
LeftHandThumb1 -26.253704 0.000000 33.147579
Head -15.900771 -1.151702 -0.572878
